<svg width="140" height="46" viewBox="0 0 140 46" fill="none" xmlns="http://www.w3.org/2000/svg">
<g clip-path="url(#clip0_1653_2663)">
<path d="M51.3196 20.3351H53.9555C54.4303 20.3351 54.6677 20.5542 54.6677 21.0005C54.6677 21.4467 54.4303 21.6658 53.9555 21.6658H52.0072C52.5475 21.9174 52.9895 22.2825 53.3252 22.7613C53.669 23.2319 53.8327 23.7756 53.8327 24.3922C53.8327 25.3092 53.4725 26.08 52.744 26.721C52.0154 27.3621 51.1722 27.6866 50.2226 27.6866C49.2649 27.6866 48.4217 27.3783 47.6931 26.7697C46.9646 26.153 46.6044 25.3903 46.6044 24.4815C46.6044 23.8567 46.7845 23.2968 47.1365 22.81C47.4885 22.3231 47.9305 21.9417 48.4708 21.6739C48.479 21.6739 48.0288 21.6739 47.1201 21.6739C46.9236 21.6739 46.6044 21.5604 46.1705 21.3332C45.7366 21.106 45.5156 20.8544 45.5156 20.5866C45.5156 20.4649 45.5647 20.3919 45.6793 20.3675C45.7776 20.3432 45.8676 20.3351 45.9495 20.3351H49.2157V19.9456C49.2157 19.5967 49.0275 19.3695 48.6509 19.2478C48.2825 19.1261 48.0942 18.9638 48.0942 18.7447C48.0942 18.6473 48.127 18.5743 48.1925 18.5418C48.258 18.5094 48.348 18.4931 48.4544 18.4931L51.1477 18.7447C51.205 18.7447 51.2377 18.7609 51.2705 18.7853C51.3032 18.8177 51.3114 18.8583 51.3114 18.9151V20.3351H51.3196ZM51.6143 31.4679C51.6143 31.5572 51.6306 31.6221 51.6716 31.6545C51.7125 31.687 51.778 31.7032 51.8844 31.7032H57.4182C57.9012 31.7032 58.1468 31.9304 58.1468 32.3767C58.1468 32.823 57.9012 33.0421 57.4182 33.0421H51.2623C50.8202 33.0421 50.4191 32.9204 50.0589 32.6769C49.6987 32.4416 49.5186 32.0927 49.5186 31.6545V30.0317C49.5186 29.5773 49.3058 29.2933 48.8801 29.1878C48.4544 29.0823 48.2416 28.8957 48.2416 28.6279C48.2416 28.5062 48.2743 28.4332 48.348 28.4007C48.4217 28.3764 48.5117 28.3601 48.6345 28.3601H51.4587C51.5079 28.3601 51.557 28.3764 51.5815 28.4007C51.6061 28.4332 51.6225 28.4656 51.6225 28.5305V31.4679H51.6143ZM48.741 24.4572C48.741 24.9684 48.8556 25.4552 49.0848 25.9258C49.314 26.3884 49.6905 26.6156 50.2063 26.6156C50.7138 26.6156 51.0904 26.3884 51.3441 25.9421C51.5979 25.4877 51.7207 25.0089 51.7207 24.4977C51.7207 23.9703 51.5979 23.4834 51.3605 23.0209C51.1149 22.5665 50.7384 22.3393 50.2226 22.3393C49.7233 22.3393 49.3549 22.5665 49.1093 23.0128C48.8637 23.4672 48.741 23.9541 48.741 24.4572ZM57.5738 22.4935H59.0718C59.5876 22.4935 59.8495 22.7126 59.8495 23.1589C59.8495 23.6052 59.5876 23.8242 59.0718 23.8242H57.5738V28.1086C57.5738 28.6847 57.4673 29.058 57.2463 29.2121C57.0253 29.3744 56.7552 29.4475 56.4277 29.4475H55.6337C55.5927 29.4475 55.5518 29.4312 55.5191 29.3988C55.4863 29.3663 55.4699 29.3257 55.4699 29.2852V19.9618C55.4699 19.4019 55.2489 19.0855 54.815 18.9881C54.3812 18.8989 54.1683 18.7122 54.1683 18.4201C54.1683 18.2984 54.2175 18.2254 54.3239 18.201C54.4303 18.1686 54.5531 18.1523 54.6923 18.1523L57.4182 18.6635C57.4755 18.6635 57.5165 18.6798 57.541 18.7041C57.5738 18.7366 57.582 18.769 57.582 18.8258V22.4935H57.5738Z" fill="white"/>
<path d="M70.7205 23.8223L70.9825 20.3088C70.9825 20.2764 70.9825 20.252 70.9743 20.2358C70.9661 20.2196 70.9416 20.2033 70.8843 20.2033H64.7447C64.5646 20.2033 64.2371 20.0735 63.7542 19.822C63.2712 19.5623 63.0256 19.3351 63.0256 19.116C63.0256 18.9943 63.0747 18.9132 63.1648 18.8807C63.263 18.8483 63.3449 18.832 63.4185 18.832H72.6443C72.9226 18.832 73.1518 18.9132 73.3319 19.0917C73.512 19.2621 73.5939 19.4649 73.5693 19.7003C73.5284 20.1384 73.3565 20.7795 73.0618 21.6152C72.7752 22.4591 72.4805 23.1894 72.1777 23.8142H74.5844C75.0837 23.8142 75.3293 24.0414 75.3293 24.4877C75.3293 24.934 75.0837 25.1612 74.5844 25.1612H69.5499V27.6361H72.9963C73.0372 27.6361 73.0781 27.6523 73.1109 27.6766C73.1436 27.701 73.16 27.7497 73.16 27.8065V32.3018C73.16 32.7481 73.0863 33.0645 72.939 33.2674C72.7916 33.4621 72.5133 33.5595 72.1204 33.5595H71.1708C71.1298 33.5595 71.0889 33.5433 71.0562 33.5108C71.0234 33.4784 71.007 33.4378 71.007 33.3972V29.0155H64.802C64.5482 29.0155 64.2044 28.8857 63.7542 28.6341C63.3121 28.3745 63.0911 28.1473 63.0911 27.9444C63.0911 27.7983 63.1402 27.7091 63.2303 27.6847C63.3203 27.6604 63.4185 27.6442 63.5168 27.6442H67.1841V25.1693H63.0256C62.7391 25.1693 62.4035 25.0395 62.0187 24.7879C61.634 24.5364 61.4375 24.3254 61.4375 24.1631C61.4375 24.0333 61.4621 23.9359 61.5112 23.8954C61.5521 23.8467 61.634 23.8304 61.7568 23.8304H70.7205V23.8223Z" fill="white"/>
<path d="M87.3791 26.6399L78.9556 27.4919C78.7919 27.4919 78.4726 27.3702 78.0142 27.1105C77.5476 26.859 77.3184 26.6237 77.3184 26.4127C77.3184 26.2748 77.3511 26.1936 77.4166 26.1449C77.4821 26.1044 77.5885 26.08 77.7113 26.08L80.5191 25.9421V24.5058C80.5191 23.9865 80.3227 23.6782 79.9379 23.5727C79.5532 23.4591 79.3567 23.2887 79.3567 23.0534C79.3567 22.9641 79.3813 22.9073 79.4222 22.8911C79.4631 22.8668 79.5286 22.8586 79.6023 22.8586H82.3938C82.4511 22.8586 82.492 22.8749 82.5165 22.8992C82.5411 22.9236 82.5575 22.9641 82.5575 23.0209C82.5575 24.8953 82.5575 25.8366 82.5575 25.8447L87.3627 25.5932V19.9618C87.3627 19.4019 87.1499 19.0855 86.7078 18.9881C86.2822 18.8989 86.0611 18.7122 86.0611 18.4201C86.0611 18.2984 86.1102 18.2254 86.2167 18.201C86.3231 18.1686 86.4459 18.1523 86.5932 18.1523L89.3192 18.6635C89.3765 18.6635 89.4174 18.6798 89.442 18.7041C89.4747 18.7366 89.4829 18.769 89.4829 18.8258V22.2744H90.9892C91.5049 22.2744 91.7669 22.5016 91.7669 22.9479C91.7669 23.3942 91.5131 23.6133 90.9892 23.6133H89.4829V28.2303C89.4829 28.8064 89.3765 29.1797 89.1473 29.3339C88.9263 29.488 88.6561 29.5692 88.3205 29.5692H87.5264C87.4855 29.5692 87.4446 29.5529 87.4118 29.5205C87.3791 29.488 87.3627 29.4475 87.3627 29.4069V26.6399H87.3791ZM85.0706 24.2624C84.7841 24.7412 84.4976 24.9602 84.2111 24.9034C83.9164 24.8548 83.7936 24.6032 83.8345 24.1569C83.8591 23.735 83.8836 23.2319 83.9246 22.6477C83.9573 22.0634 83.9819 21.5441 83.9982 21.0978H79.4222C79.2339 21.0978 78.9392 20.9599 78.5463 20.6759C78.1452 20.3919 77.9487 20.1485 77.9487 19.9456C77.9487 19.8239 77.9733 19.7427 78.0306 19.7103C78.0879 19.6778 78.1533 19.6616 78.2434 19.6616H85.5618C86.0038 19.6616 86.274 19.9375 86.3886 20.4811C86.2822 21.1303 86.0939 21.8119 85.8401 22.5422C85.5782 23.2644 85.3244 23.8405 85.0706 24.2624ZM83.2042 31.4679C83.2042 31.5572 83.2206 31.6221 83.2615 31.6545C83.3024 31.687 83.3679 31.7032 83.4743 31.7032H89.3356C89.8186 31.7032 90.056 31.9304 90.056 32.3767C90.056 32.823 89.8186 33.0421 89.3356 33.0421H82.844C82.4019 33.0421 82.0008 32.9204 81.6406 32.6769C81.2804 32.4416 81.0922 32.0927 81.0922 31.6545V30.0479C81.0922 29.5935 80.8793 29.3095 80.4536 29.204C80.028 29.0985 79.8151 28.9119 79.8151 28.6441C79.8151 28.5224 79.8561 28.4494 79.9297 28.425C79.9952 28.3926 80.0935 28.3845 80.2162 28.3845H83.0405C83.0978 28.3845 83.1387 28.4007 83.1714 28.425C83.196 28.4494 83.2124 28.49 83.2124 28.5468V31.4679H83.2042Z" fill="white"/>
<path d="M103.651 25.8303L95.1618 26.6823C94.9244 26.7067 94.5806 26.5768 94.1467 26.3091C93.7128 26.0413 93.5 25.7979 93.5 25.595C93.5 25.4652 93.5327 25.3759 93.5982 25.3272C93.6637 25.2866 93.762 25.2623 93.8929 25.2623L96.799 25.1081V24.0452C96.799 23.534 96.6025 23.2175 96.2178 23.1039C95.833 22.9903 95.6366 22.8199 95.6366 22.5846C95.6366 22.4953 95.6611 22.4385 95.7021 22.4142C95.743 22.3898 95.8085 22.3817 95.8822 22.3817H98.6736C98.7309 22.3817 98.7719 22.3898 98.8046 22.4223C98.8373 22.4466 98.8455 22.4872 98.8455 22.544V25.0026L103.651 24.7673V19.8095C103.651 19.2496 103.43 18.9331 102.996 18.8358C102.562 18.7465 102.341 18.5599 102.341 18.2678C102.341 18.1461 102.39 18.073 102.497 18.0487C102.603 18.0162 102.726 18 102.865 18L105.591 18.5112C105.648 18.5112 105.689 18.5274 105.714 18.5518C105.738 18.5842 105.755 18.6167 105.755 18.6735V21.6596H107.261C107.777 21.6596 108.039 21.8786 108.039 22.3249C108.039 22.7712 107.777 22.9903 107.261 22.9903H105.755V25.8628C105.755 26.447 105.648 26.7878 105.427 26.8852C105.206 26.9825 104.928 27.0312 104.6 27.0312H103.814C103.765 27.0312 103.733 27.015 103.7 26.9825C103.667 26.9501 103.651 26.9095 103.651 26.8689V25.8303ZM101.367 23.5745C101.08 24.0533 100.786 24.2642 100.483 24.2156C100.18 24.1669 100.049 23.9153 100.098 23.469C100.114 23.0471 100.139 22.5765 100.163 22.0572C100.188 21.5378 100.204 21.0591 100.213 20.6128H95.6038C95.3992 20.6128 95.0963 20.4911 94.7197 20.2477C94.335 19.9961 94.1385 19.7933 94.1385 19.631C94.1385 19.5093 94.1631 19.4281 94.2204 19.3957C94.2777 19.3632 94.3514 19.347 94.4332 19.347H101.817C102.259 19.347 102.529 19.6229 102.644 20.1665C102.537 20.8157 102.357 21.4405 102.112 22.0409C101.866 22.6414 101.621 23.1526 101.367 23.5745ZM101.432 26.7391C102.382 26.7391 103.25 27.0556 104.06 27.6966C104.862 28.3376 105.263 29.1491 105.263 30.1309C105.263 31.1127 104.862 31.9242 104.06 32.5652C103.25 33.2062 102.382 33.5227 101.432 33.5227C100.499 33.5227 99.6232 33.2062 98.8046 32.5652C97.986 31.9242 97.5767 31.1127 97.5767 30.1309C97.5767 29.1491 97.986 28.3376 98.8046 27.6966C99.6232 27.0556 100.491 26.7391 101.432 26.7391ZM99.746 30.1309C99.746 30.7314 99.9015 31.2344 100.213 31.632C100.524 32.0296 100.925 32.2325 101.416 32.2325C101.932 32.2325 102.341 32.0296 102.636 31.632C102.93 31.2344 103.086 30.7314 103.086 30.1309C103.086 29.5304 102.93 29.0273 102.636 28.6135C102.341 28.2078 101.932 28.0049 101.416 28.0049C100.908 28.0049 100.507 28.2078 100.204 28.6135C99.9015 29.0273 99.746 29.5304 99.746 30.1309Z" fill="white"/>
<path d="M114.713 24.9824V23.3757C114.713 23.0268 114.525 22.8077 114.132 22.7104C113.747 22.613 113.551 22.4345 113.551 22.1911C113.551 22.0693 113.592 22.0044 113.666 21.9882C113.739 21.9801 113.821 21.972 113.895 21.972H116.817C116.875 21.972 116.915 21.9882 116.94 22.0125C116.965 22.0369 116.981 22.0775 116.981 22.1343V24.9743H122.646C123.137 24.9743 123.391 25.2015 123.391 25.6477C123.391 26.094 123.145 26.3131 122.646 26.3131H111.103C110.817 26.3131 110.481 26.1914 110.096 25.9399C109.712 25.6883 109.523 25.4773 109.523 25.3069C109.523 25.1771 109.548 25.0879 109.589 25.0392C109.63 24.9905 109.712 24.9661 109.835 24.9661H114.713V24.9824ZM112.962 20.2112C112.757 20.2112 112.413 20.0813 111.947 19.8298C111.48 19.5701 111.243 19.3429 111.243 19.1238C111.243 19.0021 111.292 18.921 111.382 18.8885C111.48 18.8561 111.562 18.8398 111.635 18.8398H120.968C121.246 18.8398 121.459 18.9129 121.622 19.067C121.786 19.2212 121.844 19.4078 121.827 19.6432C121.786 20.0732 121.672 20.6656 121.492 21.4121C121.311 22.1586 121.041 22.8402 120.697 23.4569C120.427 23.9275 120.124 24.1547 119.781 24.1385C119.437 24.1304 119.298 23.8464 119.363 23.3027V20.3085C119.363 20.2761 119.363 20.2517 119.355 20.2355C119.355 20.2193 119.322 20.203 119.265 20.203H112.962V20.2112ZM116.482 26.8892C117.538 26.8892 118.463 27.2057 119.249 27.8386C120.034 28.4715 120.427 29.283 120.427 30.2486C120.427 31.2547 120.034 32.0743 119.249 32.7234C118.463 33.3726 117.538 33.6971 116.465 33.6971C115.393 33.6971 114.468 33.3726 113.682 32.7234C112.896 32.0824 112.503 31.2547 112.503 30.2486C112.503 29.283 112.912 28.4796 113.715 27.8386C114.525 27.2057 115.442 26.8892 116.482 26.8892ZM114.746 30.3135C114.746 30.8652 114.885 31.3683 115.155 31.839C115.434 32.3096 115.868 32.5449 116.465 32.5449C117.055 32.5449 117.497 32.3096 117.767 31.839C118.045 31.3683 118.176 30.8652 118.176 30.3135C118.176 29.8104 118.045 29.3073 117.767 28.8042C117.489 28.3011 117.055 28.0415 116.465 28.0415C115.892 28.0415 115.467 28.293 115.18 28.8042C114.885 29.3073 114.746 29.8104 114.746 30.3135Z" fill="white"/>
<path d="M129.874 24.5951C129.817 24.7087 129.752 24.8142 129.686 24.9197C129.621 25.0252 129.547 25.1388 129.473 25.2442C128.974 26.0151 128.376 26.786 127.656 27.5649C126.935 28.3358 126.223 28.9606 125.511 29.4475C125.2 29.6503 124.995 29.699 124.881 29.6016C124.774 29.4961 124.823 29.3176 125.028 29.058C125.388 28.6036 125.814 28.0356 126.281 27.3621C126.755 26.6886 127.206 25.9421 127.615 25.1306C127.934 24.5058 128.229 23.8242 128.491 23.094C128.753 22.3556 128.925 21.7308 128.99 21.2033C129.064 20.7246 128.9 20.4243 128.474 20.2945C128.057 20.1728 127.844 19.9862 127.844 19.7509C127.844 19.6373 127.885 19.5642 127.975 19.5318C128.057 19.4912 128.163 19.4669 128.286 19.4669L131.209 19.9781C131.43 19.9781 131.561 20.043 131.626 20.1566C131.683 20.2702 131.7 20.4 131.667 20.5461C131.569 20.9842 131.413 20.9924 131.209 21.5928C131.004 22.1933 130.75 22.8262 130.439 23.4834C130.758 23.9054 131.119 24.3111 131.528 24.7168C131.937 25.1063 132.248 25.3984 132.453 25.5932C132.707 25.8041 132.903 25.9177 133.051 25.9421C133.19 25.9664 133.304 26.0719 133.378 26.2585C133.583 26.7697 133.73 27.4189 133.828 28.1979C133.918 28.9768 133.795 29.4556 133.484 29.6179C133.206 29.7639 132.862 29.5124 132.461 28.8713C132.052 28.2303 131.675 27.6217 131.323 27.0375C131.086 26.6237 130.832 26.2099 130.57 25.7879C130.333 25.3579 130.095 24.9602 129.874 24.5951ZM137.25 23.3455H138.756C139.247 23.3455 139.501 23.5727 139.501 24.019C139.501 24.4653 139.247 24.6844 138.756 24.6844H137.25V31.8736C137.25 32.5552 137.144 32.9934 136.923 33.2206C136.702 33.4397 136.431 33.5452 136.096 33.5452H135.31C135.269 33.5452 135.228 33.529 135.187 33.4965C135.154 33.464 135.138 33.4235 135.138 33.3829V20.1647C135.138 19.5967 134.909 19.2397 134.442 19.0936C133.984 18.9475 133.755 18.7366 133.755 18.4607C133.755 18.339 133.804 18.2578 133.91 18.2173C134.016 18.1767 134.139 18.1523 134.287 18.1523L137.094 18.6635C137.152 18.6635 137.193 18.6798 137.217 18.7041C137.242 18.7366 137.258 18.769 137.258 18.8258V23.3455H137.25Z" fill="white"/>
<g filter="url(#filter0_i_1653_2663)">
<path d="M20.6136 17.5586C12.6894 17.5586 6.27148 23.9283 6.27148 31.7749C6.27148 39.6295 12.6976 45.9992 20.6136 45.9992C28.5377 45.9992 34.9638 39.6295 34.9638 31.7749C34.9556 23.9283 28.5377 17.5586 20.6136 17.5586ZM20.6136 38.1527C17.028 38.1527 14.1875 35.3127 14.1875 31.7749C14.1875 28.2532 17.069 25.4051 20.6136 25.4051C24.1663 25.4051 27.0478 28.2614 27.0478 31.7749C27.0396 35.2965 24.1663 38.1527 20.6136 38.1527Z" fill="#EB83B2"/>
<path d="M6.91016 36.0042C8.7111 41.7573 14.0894 45.9361 20.4663 46.001C21.8989 42.2198 20.9657 39.2662 20.5073 38.1545C17.5603 38.1058 15.1044 36.0935 14.4004 33.3752C9.45604 32.653 7.58142 34.7303 6.91016 36.0042Z" fill="#E1002A"/>
<path d="M20.6211 45.9993C27.1291 45.9993 32.622 41.6906 34.3738 35.7996C33.899 35.0855 31.7706 32.4403 26.8344 33.3978C26.114 36.1323 23.6091 38.1527 20.6211 38.1527C20.5802 38.1527 20.5311 38.1527 20.4983 38.1527C20.7603 38.7857 21.9636 42.0557 20.4492 45.9993C20.5065 45.9993 20.5638 45.9993 20.6211 45.9993Z" fill="#FFF265"/>
<path d="M20.6132 17.5586C20.5968 17.5586 20.5886 17.5586 20.5723 17.5586V25.4051C20.5886 25.4051 20.605 25.4051 20.6132 25.4051C24.166 25.4051 27.0475 28.2614 27.0475 31.7749C27.0475 32.4159 26.9492 33.0245 26.7773 33.6006C26.8019 33.5276 26.8265 33.4626 26.8428 33.3896C31.7545 32.4402 33.8911 35.0693 34.3822 35.7914C34.7588 34.5175 34.9635 33.1705 34.9635 31.7749C34.9553 23.9283 28.5374 17.5586 20.6132 17.5586Z" fill="#F49C00"/>
</g>
<g filter="url(#filter1_i_1653_2663)">
<path d="M20.9492 12.7407C24.1336 12.5784 26.7041 10.1198 27.0069 7.00391C25.5171 7.79911 23.8471 8.31031 22.0789 8.45637C21.9643 9.97374 21.5714 11.4181 20.9492 12.7407Z" fill="#FFF265"/>
<path d="M20.6134 0C20.3105 0 20.0076 0.0243429 19.7129 0.0649145C21.2273 2.13406 22.1278 4.69007 22.1278 7.44893C22.1278 7.78973 22.1114 8.12242 22.0869 8.44699C23.8551 8.30093 25.525 7.79785 27.0149 6.99453C27.0395 6.79167 27.0476 6.5807 27.0476 6.36973C27.0395 2.85624 24.1661 0 20.6134 0Z" fill="#F49C00"/>
<path d="M21.0147 8.49582C18.5016 8.49582 16.1604 7.76553 14.1875 6.50781C14.2612 9.96451 17.1099 12.7396 20.6136 12.7396C20.7282 12.7396 20.8428 12.7396 20.9492 12.7315C21.5632 11.4089 21.9643 9.96451 22.0789 8.43902C21.7269 8.47959 21.3749 8.49582 21.0147 8.49582Z" fill="#EB83B2"/>
<path d="M14.1875 6.37122C14.1875 6.41991 14.1875 6.46048 14.1875 6.50917C16.1604 7.75877 18.5016 8.49717 21.0147 8.49717C21.3749 8.49717 21.7351 8.48094 22.0871 8.44848C22.1117 8.1158 22.128 7.78311 22.128 7.45042C22.128 4.69156 21.2276 2.14367 19.7131 0.0664062C16.586 0.496464 14.1875 3.15796 14.1875 6.37122Z" fill="#E1002A"/>
</g>
<g filter="url(#filter2_i_1653_2663)">
<path d="M36.5027 11.6992C35.4713 11.6992 34.5299 12.0644 33.7931 12.6811C32.2705 13.8252 30.5841 14.7746 28.7832 15.4967C30.445 16.8843 31.4519 18.6938 31.4519 20.6737C31.4519 21.7448 31.1572 22.7672 30.6251 23.7003C33.7849 22.6049 36.7074 21.0064 39.3024 18.994C40.1701 18.2313 40.7267 17.1196 40.7267 15.87C40.7267 13.5574 38.8357 11.6911 36.5027 11.6992Z" fill="#EB83B2"/>
<path d="M12.1325 15.3675C10.4461 14.6615 8.8662 13.7527 7.43363 12.6735C6.69688 12.0569 5.74729 11.6836 4.70766 11.6836C2.3828 11.6836 0.5 13.558 0.5 15.8625C0.5 17.3068 1.25312 18.5889 2.3828 19.3354C4.59305 20.9988 7.04889 22.362 9.68481 23.3763C9.8076 23.425 9.92221 23.4656 10.045 23.5061C9.57839 22.6217 9.31644 21.6642 9.31644 20.6661C9.31644 18.6376 10.3806 16.7713 12.1325 15.3675Z" fill="#F49C00"/>
<path d="M28.7911 15.4961C26.3189 16.486 23.6257 17.0378 20.7933 17.0622C20.9488 18.1982 21.0307 19.3747 21.0307 20.5675C21.0307 22.2229 20.8752 23.8376 20.5723 25.3793C20.5886 25.3793 20.605 25.3793 20.6214 25.3793C24.125 25.3793 27.4895 24.7789 30.6248 23.6997C31.1569 22.7665 31.4516 21.7441 31.4516 20.673C31.4516 18.6931 30.4447 16.8836 28.7911 15.4961Z" fill="#E1002A"/>
<path d="M12.1328 15.3672C10.381 16.7791 9.30859 18.6373 9.30859 20.6739C9.30859 21.672 9.57055 22.6295 10.0372 23.5139C13.3198 24.7149 16.8726 25.3802 20.5727 25.3802C20.8674 23.8385 21.0311 22.2238 21.0311 20.5685C21.0311 19.3757 20.9492 18.2072 20.7937 17.0631C20.7446 17.0631 20.6873 17.0631 20.6382 17.0631C17.6175 17.0712 14.7524 16.4626 12.1328 15.3672Z" fill="#FFF265"/>
</g>
</g>
<defs>
<filter id="filter0_i_1653_2663" x="6.27148" y="17.5586" width="28.6924" height="28.4424" filterUnits="userSpaceOnUse" color-interpolation-filters="sRGB">
<feFlood flood-opacity="0" result="BackgroundImageFix"/>
<feBlend mode="normal" in="SourceGraphic" in2="BackgroundImageFix" result="shape"/>
<feColorMatrix in="SourceAlpha" type="matrix" values="0 0 0 0 0 0 0 0 0 0 0 0 0 0 0 0 0 0 127 0" result="hardAlpha"/>
<feOffset/>
<feGaussianBlur stdDeviation="2"/>
<feComposite in2="hardAlpha" operator="arithmetic" k2="-1" k3="1"/>
<feColorMatrix type="matrix" values="0 0 0 0 0 0 0 0 0 0 0 0 0 0 0 0 0 0 0.4 0"/>
<feBlend mode="normal" in2="shape" result="effect1_innerShadow_1653_2663"/>
</filter>
<filter id="filter1_i_1653_2663" x="14.1875" y="0" width="12.8604" height="12.7407" filterUnits="userSpaceOnUse" color-interpolation-filters="sRGB">
<feFlood flood-opacity="0" result="BackgroundImageFix"/>
<feBlend mode="normal" in="SourceGraphic" in2="BackgroundImageFix" result="shape"/>
<feColorMatrix in="SourceAlpha" type="matrix" values="0 0 0 0 0 0 0 0 0 0 0 0 0 0 0 0 0 0 127 0" result="hardAlpha"/>
<feOffset/>
<feGaussianBlur stdDeviation="2"/>
<feComposite in2="hardAlpha" operator="arithmetic" k2="-1" k3="1"/>
<feColorMatrix type="matrix" values="0 0 0 0 0 0 0 0 0 0 0 0 0 0 0 0 0 0 0.4 0"/>
<feBlend mode="normal" in2="shape" result="effect1_innerShadow_1653_2663"/>
</filter>
<filter id="filter2_i_1653_2663" x="0.5" y="11.6836" width="40.2266" height="13.6968" filterUnits="userSpaceOnUse" color-interpolation-filters="sRGB">
<feFlood flood-opacity="0" result="BackgroundImageFix"/>
<feBlend mode="normal" in="SourceGraphic" in2="BackgroundImageFix" result="shape"/>
<feColorMatrix in="SourceAlpha" type="matrix" values="0 0 0 0 0 0 0 0 0 0 0 0 0 0 0 0 0 0 127 0" result="hardAlpha"/>
<feOffset/>
<feGaussianBlur stdDeviation="2"/>
<feComposite in2="hardAlpha" operator="arithmetic" k2="-1" k3="1"/>
<feColorMatrix type="matrix" values="0 0 0 0 0 0 0 0 0 0 0 0 0 0 0 0 0 0 0.4 0"/>
<feBlend mode="normal" in2="shape" result="effect1_innerShadow_1653_2663"/>
</filter>
<clipPath id="clip0_1653_2663">
<rect width="139" height="46" fill="white" transform="translate(0.5)"/>
</clipPath>
</defs>
</svg>
